<svg xmlns="http://www.w3.org/2000/svg" viewBox="2790.234 41 339.539 82.64">
  <defs>
    <style>
      .cls-1 {
        fill: #e6e6e6;
      }
    </style>
  </defs>
  <g id="Group_67" data-name="Group 67" transform="translate(2000 8.63)">
    <g id="Group_64" data-name="Group 64" transform="translate(790.234 54.186)">
      <path id="Path_153" data-name="Path 153" class="cls-1" d="M.935,86.728A.92.92,0,0,1,0,85.79c.085-1.45.128-2.9.171-4.393C.253,79.563.3,77.729.3,75.81V68.432c0-1.877-.043-3.753-.128-5.544C.125,61.437.082,59.944,0,58.409a.92.92,0,0,1,1.024-.938h0a8.282,8.282,0,0,0,1.024.085,8.282,8.282,0,0,0,1.024-.085h0a.918.918,0,0,1,1.024.938c-.085,1.493-.128,2.986-.171,4.478-.085,1.791-.128,3.668-.128,5.544v2.346c0,.213.085.341.256.341.128,0,.3-.128.6-.384.981-.853,2.047-1.834,3.156-2.9s2.218-2.218,3.327-3.369,2.218-2.346,3.284-3.583c.981-1.066,1.919-2.132,2.815-3.156a.973.973,0,0,1,.81-.3c.085,0,.128.043.213.043a8.328,8.328,0,0,0,.981.085,4.864,4.864,0,0,0,1.109-.085,8.54,8.54,0,0,0,1.024-.171c-.981.853-2.133,1.877-3.369,3.028s-2.516,2.388-3.8,3.583c-1.28,1.237-2.474,2.431-3.625,3.625-.9.938-1.706,1.749-2.346,2.516a.908.908,0,0,0,0,1.194c2.132,2.431,4.308,4.862,6.483,7.378,2.346,2.687,4.734,5.417,7.165,8.1-.426-.043-.853-.085-1.279-.085H18.123a4.636,4.636,0,0,0-.768.043.771.771,0,0,1-.725-.3c-.938-1.066-1.962-2.3-3.113-3.668-1.237-1.535-2.474-2.985-3.625-4.393-1.194-1.407-2.26-2.687-3.2-3.8S5.029,72.611,4.56,72.142c-.213-.213-.384-.341-.512-.341s-.213.085-.213.256v3.711c0,1.877.043,3.753.128,5.587.043,1.493.128,2.943.171,4.393a.9.9,0,0,1-.938.938c-.384,0-.725-.043-1.109-.043C1.66,86.686,1.276,86.686.935,86.728Z" transform="translate(0.006 -54.609)"/>
      <path id="Path_154" data-name="Path 154" class="cls-1" d="M58.377,80.813a1.164,1.164,0,0,1,.512-1.024,10.9,10.9,0,0,1,3.028-1.578,11.051,11.051,0,0,1,3.327-.512,8.469,8.469,0,0,1,2.815.469,5.869,5.869,0,0,1,3.583,3.284,6.437,6.437,0,0,1,.512,2.6c0,1.621-.043,3.241-.085,4.862s-.085,3.327-.085,5.118a10.016,10.016,0,0,0,.043,1.109,2.577,2.577,0,0,0,.213,1.024,2.42,2.42,0,0,0,.512.768,1.354,1.354,0,0,0,.981.3,1.913,1.913,0,0,0,.469-.043,1.049,1.049,0,0,0,.469-.171h0a1.24,1.24,0,0,1-1.024,1.237.322.322,0,0,0-.171.043,8.752,8.752,0,0,1-1.578.128,2.888,2.888,0,0,1-2.09-.725,2.76,2.76,0,0,1-.341-.384,1.3,1.3,0,0,0-1.834-.256,9.935,9.935,0,0,1-1.749,1.109,8.512,8.512,0,0,1-3.668.725,6.882,6.882,0,0,1-2.09-.3,5.1,5.1,0,0,1-1.834-.981,6.18,6.18,0,0,1-1.28-1.663,4.6,4.6,0,0,1-.512-2.218,5.018,5.018,0,0,1,1.621-3.966,8.665,8.665,0,0,1,4.436-1.877c1.535-.256,2.73-.469,3.625-.682a7.9,7.9,0,0,0,1.919-.6c.426-.213.682-.426.768-.725A3.636,3.636,0,0,0,69,84.823a7.918,7.918,0,0,0-.256-2.047,4.52,4.52,0,0,0-.81-1.706,4.449,4.449,0,0,0-1.45-1.194,4.819,4.819,0,0,0-2.175-.469,6.811,6.811,0,0,0-3.2.768,5.354,5.354,0,0,0-2.218,2.132h-.469V80.813Zm10.535,8.7a1.268,1.268,0,0,0-1.535-1.28.157.157,0,0,0-.128.043c-.64.128-1.28.256-1.962.384a16.616,16.616,0,0,0-1.962.512,7,7,0,0,0-1.706.81,3.691,3.691,0,0,0-1.663,3.241,3.861,3.861,0,0,0,1.152,3.028,3.761,3.761,0,0,0,2.559,1.024,5.332,5.332,0,0,0,2.986-.9,6.864,6.864,0,0,0,1.877-1.791,1.289,1.289,0,0,0,.213-.682Z" transform="translate(-32.4 -66.308)"/>
      <path id="Path_155" data-name="Path 155" class="cls-1" d="M112.294,60.036c0-1.152-.043-2.26-.085-3.369s-.085-2.175-.128-3.2c-.043-.682-.043-1.279-.085-1.791a.641.641,0,0,1,.725-.682c.469.043.853.085,1.152.085s.682-.043,1.152-.085a.659.659,0,0,1,.725.682c-.043.554-.085,1.152-.085,1.791q-.064,1.535-.128,3.2c-.043,1.109-.043,2.26-.085,3.369,0,1.152-.043,2.218-.043,3.156v7.762c0,.981,0,2.047.043,3.156,0,1.152.043,2.26.085,3.369s.085,2.175.128,3.156c.043.64.043,1.237.085,1.749a.649.649,0,0,1-.682.682,11.58,11.58,0,0,0-1.194-.043,11.176,11.176,0,0,0-1.194.043.674.674,0,0,1-.682-.682c.043-.512.085-1.109.085-1.749.043-.981.085-2.047.128-3.156s.043-2.26.085-3.369c0-1.152.043-2.218.043-3.156V63.192C112.294,62.212,112.294,61.145,112.294,60.036Z" transform="translate(-64.225 -50.991)"/>
      <path id="Path_156" data-name="Path 156" class="cls-1" d="M139.3,58.275a2.184,2.184,0,1,1,.64,1.535A2.094,2.094,0,0,1,139.3,58.275Zm.6,15.482c0-1.279-.043-2.644-.085-4.052-.043-1.109-.085-2.175-.213-3.156a.623.623,0,0,1,.725-.682c.426.043.81.085,1.152.085.3,0,.682-.043,1.152-.085a.661.661,0,0,1,.725.682c-.085.981-.171,2.047-.213,3.156-.043,1.407-.085,2.772-.085,4.052v4.478c0,1.28.043,2.644.085,4.052.043,1.109.085,2.132.213,3.113a.6.6,0,0,1-.64.682,11.176,11.176,0,0,0-1.194-.043,11.58,11.58,0,0,0-1.194.043.616.616,0,0,1-.64-.682c.085-.938.171-1.962.213-3.113.043-1.407.085-2.772.085-4.052V73.757Z" transform="translate(-79.886 -53.921)"/>
      <path id="Path_157" data-name="Path 157" class="cls-1" d="M178.92,81.524a4,4,0,0,0-3.412-1.663,5.13,5.13,0,0,0-4.393,1.834,8.393,8.393,0,0,0-1.407,5.2v3.625c0,1.279.043,2.644.085,4.052.043,1.066.085,2.047.171,2.943a.8.8,0,0,1-.81.853c-.341,0-.682-.043-1.024-.043a8.219,8.219,0,0,0-1.024.043.773.773,0,0,1-.81-.853c.085-.9.128-1.877.171-2.943.043-1.407.085-2.772.085-4.052V86.087c0-1.279-.043-2.644-.085-4.052-.043-1.066-.085-2.047-.171-2.986a.785.785,0,0,1,.853-.853c.384.043.682.085.938.085a5.993,5.993,0,0,0,.768-.085h0a.75.75,0,0,1,.9.81c-.043.81-.085,1.663-.085,2.474h.085a9.128,9.128,0,0,1,2.858-2.858,7.42,7.42,0,0,1,3.966-1.024,9.551,9.551,0,0,1,2.431.341,5.924,5.924,0,0,1,2.218,1.194,6.554,6.554,0,0,1,1.621,2.26,8.982,8.982,0,0,1,.64,3.668c0,1.237-.043,2.474-.085,3.8-.043,1.279-.085,2.687-.085,4.137v2.772c0,.469,0,.9.043,1.365v.384a.784.784,0,0,1-.81.81c-.3,0-.64-.043-.938-.043a6.3,6.3,0,0,0-.9.043.761.761,0,0,1-.81-.81c.043-1.194.085-2.474.171-3.711q.128-2.367.128-4.862v-2.6A8.425,8.425,0,0,0,178.92,81.524Z" transform="translate(-95.366 -66.251)"/>
      <path id="Path_158" data-name="Path 158" class="cls-1" d="M223.1,58.275a2.184,2.184,0,1,1,.64,1.535A2.094,2.094,0,0,1,223.1,58.275Zm.6,15.482c0-1.279-.043-2.644-.085-4.052-.043-1.109-.085-2.175-.213-3.156a.628.628,0,0,1,.682-.682c.426.043.81.085,1.152.085.3,0,.682-.043,1.152-.085a.628.628,0,0,1,.682.682c-.085.981-.171,2.047-.213,3.156-.043,1.407-.085,2.772-.085,4.052v4.478c0,1.28.043,2.644.085,4.052.043,1.109.085,2.175.213,3.113a.616.616,0,0,1-.64.682,16.741,16.741,0,0,0-2.388,0,.616.616,0,0,1-.64-.682c.085-.938.171-2,.213-3.113.043-1.407.085-2.772.085-4.052Z" transform="translate(-127.945 -53.921)"/>
      <path id="Path_159" data-name="Path 159" class="cls-1" d="M262.662,81.524a4,4,0,0,0-3.412-1.663,5.13,5.13,0,0,0-4.393,1.834,8.393,8.393,0,0,0-1.407,5.2v3.625c0,1.279.043,2.644.085,4.052.043,1.152.085,2.175.213,3.156a.593.593,0,0,1-.6.64c-.427-.043-.853-.043-1.28-.043s-.853,0-1.28.043a.593.593,0,0,1-.6-.64c.085-.981.171-2,.213-3.156.043-1.407.085-2.772.085-4.052V86.087c0-1.279-.043-2.644-.085-4.052-.043-1.152-.085-2.218-.213-3.241a.535.535,0,0,1,.64-.6,6.486,6.486,0,0,0,1.194.085,5.993,5.993,0,0,0,.768-.085c.085,0,.171-.043.256-.043a.552.552,0,0,1,.64.6c-.043.9-.085,1.834-.085,2.73h.085a9.129,9.129,0,0,1,2.858-2.858,7.42,7.42,0,0,1,3.966-1.024,9.551,9.551,0,0,1,2.431.341,5.924,5.924,0,0,1,2.218,1.194,6.554,6.554,0,0,1,1.621,2.26,8.983,8.983,0,0,1,.64,3.668c0,1.237-.043,2.474-.085,3.8-.043,1.279-.085,2.687-.085,4.137v2.772c0,.469,0,.9.043,1.365a3.227,3.227,0,0,0,.043.64.583.583,0,0,1-.6.6,15.571,15.571,0,0,0-2.3,0,.583.583,0,0,1-.6-.6c.043-1.279.128-2.6.171-3.966q.128-2.367.128-4.862v-2.6A8.425,8.425,0,0,0,262.662,81.524Z" transform="translate(-143.367 -66.251)"/>
    </g>
    <g id="Group_65" data-name="Group 65" transform="translate(989.796 57.261)">
      <path id="Path_160" data-name="Path 160" class="cls-1" d="M468.369,69.46q0-2.879-.128-5.63t-.256-5.63c.682.043,1.407.128,2.09.171.725.043,1.407.085,2.09.085.341,0,.768,0,1.237-.043.512-.043.981-.043,1.493-.085.512,0,.981-.043,1.45-.085s.853-.043,1.152-.043c.427,0,.981,0,1.621.043a17.193,17.193,0,0,1,2,.256,9.1,9.1,0,0,1,2.09.64,6.823,6.823,0,0,1,1.877,1.237,6.373,6.373,0,0,1,1.365,2.047,7.959,7.959,0,0,1,.512,3.071,8.093,8.093,0,0,1-1.237,4.649,8.942,8.942,0,0,1-3.028,2.772,12.281,12.281,0,0,1-3.8,1.365,23.4,23.4,0,0,1-3.583.341c-.682,0-1.279,0-1.834-.043a11.926,11.926,0,0,1-1.706-.128v2.388q0,2.879.128,5.63c.085,1.834.171,3.668.256,5.459-.682-.043-1.365-.085-2.133-.085s-1.45.043-2.133.085c.085-1.791.171-3.625.256-5.459s.128-3.711.128-5.63V69.46Zm3.54,3.284a14.414,14.414,0,0,0,3.071.341,12.527,12.527,0,0,0,2.772-.3,7.6,7.6,0,0,0,2.644-1.109,6.2,6.2,0,0,0,1.962-2.218,7.5,7.5,0,0,0,.768-3.625,7.587,7.587,0,0,0-.512-3.028,4.168,4.168,0,0,0-1.45-1.834,5.983,5.983,0,0,0-2.26-.9,16.375,16.375,0,0,0-3.028-.256h-3.924V72.744Z" transform="translate(-467.9 -58.2)"/>
      <path id="Path_161" data-name="Path 161" class="cls-1" d="M512.434,81.316a12.922,12.922,0,0,1,3.583-2,11.327,11.327,0,0,1,3.369-.512,8.727,8.727,0,0,1,2.858.469,5.806,5.806,0,0,1,2.218,1.322,6.573,6.573,0,0,1,1.45,2.047,6.645,6.645,0,0,1,.512,2.644c0,1.663-.043,3.284-.085,4.9s-.085,3.369-.085,5.2A10.013,10.013,0,0,0,526.3,96.5a2.577,2.577,0,0,0,.213,1.024,2.421,2.421,0,0,0,.512.768,1.354,1.354,0,0,0,.981.3,1.912,1.912,0,0,0,.469-.043,1.05,1.05,0,0,0,.469-.171v.938a5.819,5.819,0,0,1-1.194.341,9.1,9.1,0,0,1-1.578.128,3,3,0,0,1-2.133-.725,2.849,2.849,0,0,1-.853-1.834,12.028,12.028,0,0,1-3.071,2.3,8.234,8.234,0,0,1-3.711.725,7.16,7.16,0,0,1-2.133-.3,5.419,5.419,0,0,1-1.834-.981,5.563,5.563,0,0,1-1.322-1.663,4.723,4.723,0,0,1-.512-2.218,5.2,5.2,0,0,1,1.621-4.052,9.047,9.047,0,0,1,4.478-1.919c1.578-.256,2.772-.469,3.668-.682a7.736,7.736,0,0,0,1.962-.6c.427-.213.682-.427.768-.725a3.635,3.635,0,0,0,.128-1.066,8.5,8.5,0,0,0-.256-2.09,5.5,5.5,0,0,0-.81-1.749,3.791,3.791,0,0,0-1.493-1.194,5.01,5.01,0,0,0-2.218-.469,7.11,7.11,0,0,0-3.241.768,4.771,4.771,0,0,0-2.218,2.175h-.469V81.316Zm10.705,7.72a14.211,14.211,0,0,1-1.706.426c-.64.128-1.322.256-1.962.384a14.7,14.7,0,0,0-1.962.512,7.313,7.313,0,0,0-1.749.81,3.8,3.8,0,0,0-1.194,1.279,3.98,3.98,0,0,0-.469,2,3.739,3.739,0,0,0,3.753,4.094,5.469,5.469,0,0,0,3.028-.9,6.624,6.624,0,0,0,2.09-2.132Z" transform="translate(-492.388 -70.014)"/>
      <path id="Path_162" data-name="Path 162" class="cls-1" d="M573.884,82.283a4.467,4.467,0,0,0-1.279-.213,3.949,3.949,0,0,0-1.877.469,4.021,4.021,0,0,0-1.407,1.279,5.27,5.27,0,0,0-.853,1.919,8.423,8.423,0,0,0-.3,2.346V92.86c0,1.919,0,3.412.043,4.436a17.649,17.649,0,0,0,.171,2.474c-.6-.043-1.151-.085-1.749-.085-.64,0-1.237.043-1.834.085.085-.981.128-2.3.171-4.009,0-1.706.043-3.753.043-6.227V88.126c0-1.109,0-2.431-.043-3.924,0-1.493-.085-3.156-.171-5.075.3.043.64.128.9.171a6.364,6.364,0,0,0,.9.085,5.224,5.224,0,0,0,.81-.085,6.617,6.617,0,0,0,.9-.171c-.128,1.024-.171,1.877-.213,2.474,0,.6-.043,1.194-.043,1.749l.085.043c1.706-3.113,3.625-4.692,5.715-4.692a3.447,3.447,0,0,1,.682.043,4.083,4.083,0,0,1,.725.213,6.022,6.022,0,0,0-.256,1.578c-.043.725-.043,1.365-.043,1.919l-.3.213A2.435,2.435,0,0,0,573.884,82.283Z" transform="translate(-523.472 -69.957)"/>
      <path id="Path_163" data-name="Path 163" class="cls-1" d="M599.068,66.143c-.085,1.109-.171,2.175-.213,3.241s-.085,2.132-.171,3.2c.3,0,.9,0,1.791-.043q1.28,0,2.815-.128a1.326,1.326,0,0,0-.043.469v.9a1.07,1.07,0,0,0,.043.426c-.384-.043-.768-.043-1.152-.085-.427,0-.853-.043-1.322-.043h-2.133a9.391,9.391,0,0,0-.128,1.407c-.043.81-.085,1.791-.128,2.9s-.043,2.26-.085,3.5c0,1.194-.043,2.3-.043,3.241,0,.81.043,1.621.085,2.388a6.273,6.273,0,0,0,.427,2.09,3.462,3.462,0,0,0,1.024,1.493,3.037,3.037,0,0,0,2,.554c.213,0,.554-.043.938-.085a6.154,6.154,0,0,0,1.024-.213v1.024c-.512.085-1.024.213-1.621.341a8.117,8.117,0,0,1-1.706.213,5.467,5.467,0,0,1-4.052-1.365A5.556,5.556,0,0,1,595.1,87.6c0-.768,0-1.621.043-2.516s.085-1.919.128-2.985.085-2.3.128-3.583c.043-1.322.043-2.772.043-4.393h-1.407a4.386,4.386,0,0,0-.725.043,5.226,5.226,0,0,0-.81.085c.043-.171.043-.341.085-.512,0-.171.043-.341.043-.512a1.451,1.451,0,0,0-.043-.427,1.515,1.515,0,0,0-.085-.426c1.322.085,2.26.128,2.858.128-.043-.6-.043-1.322-.085-2.175q0-1.28-.128-2.687l3.583-1.535h.341Z" transform="translate(-539.358 -62.731)"/>
      <path id="Path_164" data-name="Path 164" class="cls-1" d="M639.838,82.666A4.13,4.13,0,0,0,636.383,81a5.238,5.238,0,0,0-4.436,1.877,8.529,8.529,0,0,0-1.407,5.246v3.668c0,1.279.043,2.687.085,4.094a33.482,33.482,0,0,0,.3,3.881c-.682-.043-1.322-.085-1.962-.085s-1.279.043-1.962.085c.128-1.152.256-2.431.3-3.881s.085-2.815.085-4.094V87.315c0-1.322-.043-2.687-.085-4.094a37.539,37.539,0,0,0-.3-4.009,13.5,13.5,0,0,0,1.962.213,5.993,5.993,0,0,0,.768-.085c.256-.043.6-.085.981-.171q-.128,1.727-.128,3.455h.085a9.4,9.4,0,0,1,2.9-2.9A7.623,7.623,0,0,1,637.62,78.7a9.552,9.552,0,0,1,2.431.341,5.618,5.618,0,0,1,2.218,1.194,5.883,5.883,0,0,1,1.621,2.3,9.344,9.344,0,0,1,.64,3.711c0,1.237-.043,2.516-.085,3.839s-.085,2.73-.085,4.18v2.815c0,.469,0,.938.043,1.365a11.344,11.344,0,0,0,.085,1.28c-.6-.043-1.194-.085-1.834-.085-.6,0-1.194.043-1.791.085.043-1.493.128-3.071.213-4.649s.128-3.241.128-4.9V87.529A9.278,9.278,0,0,0,639.838,82.666Z" transform="translate(-559.144 -69.957)"/>
      <path id="Path_165" data-name="Path 165" class="cls-1" d="M679.3,90.288c0-3.54.853-6.355,2.516-8.359,1.706-2,4.137-3.028,7.378-3.028a10.132,10.132,0,0,1,3.966.725,8.247,8.247,0,0,1,2.815,1.919,7.258,7.258,0,0,1,1.663,2.815,11.212,11.212,0,0,1,.554,3.412,5.722,5.722,0,0,1-.043.853,6.408,6.408,0,0,1-.085.853c-1.578-.043-3.113-.043-4.649-.085s-3.071-.043-4.649-.043c-.938,0-1.919,0-2.858.043s-1.877.043-2.858.085a2.455,2.455,0,0,0-.043.64v.554a9.6,9.6,0,0,0,.512,3.156,6.967,6.967,0,0,0,1.45,2.516,6.8,6.8,0,0,0,2.346,1.706,7.65,7.65,0,0,0,3.2.64,6.727,6.727,0,0,0,1.791-.256,15.026,15.026,0,0,0,1.791-.64,7.818,7.818,0,0,0,1.621-.981,9.027,9.027,0,0,0,1.322-1.194l.213.128L697,97.879a12.878,12.878,0,0,1-3.241,1.791,10.762,10.762,0,0,1-4.009.725,12.251,12.251,0,0,1-4.265-.725,9,9,0,0,1-3.327-2.09,9.433,9.433,0,0,1-2.175-3.241A11.55,11.55,0,0,1,679.3,90.288Zm9.98-10.023a5.106,5.106,0,0,0-2.73.725,6.82,6.82,0,0,0-1.834,1.834,7.81,7.81,0,0,0-1.066,2.431,14.693,14.693,0,0,0-.469,2.474c.9.043,1.834.043,2.815.085s1.919.043,2.858.043,1.919,0,2.9-.043,1.919-.043,2.858-.085a17.114,17.114,0,0,0-.213-2.474,8.086,8.086,0,0,0-.768-2.431,5.287,5.287,0,0,0-1.621-1.877A5.059,5.059,0,0,0,689.28,80.265Z" transform="translate(-589.138 -70.071)"/>
      <path id="Path_166" data-name="Path 166" class="cls-1" d="M743.385,82.283a4.467,4.467,0,0,0-1.28-.213,3.948,3.948,0,0,0-1.877.469,4.021,4.021,0,0,0-1.407,1.279,5.27,5.27,0,0,0-.853,1.919,8.423,8.423,0,0,0-.3,2.346V92.86c0,1.919,0,3.412.043,4.436a17.658,17.658,0,0,0,.171,2.474c-.6-.043-1.151-.085-1.749-.085-.64,0-1.237.043-1.834.085.085-.981.128-2.3.171-4.009,0-1.706.043-3.753.043-6.227V88.126c0-1.109,0-2.431-.043-3.924,0-1.493-.085-3.156-.171-5.075.3.043.64.128.9.171a6.364,6.364,0,0,0,.9.085,5.224,5.224,0,0,0,.81-.085,6.62,6.62,0,0,0,.9-.171c-.128,1.024-.171,1.877-.213,2.474,0,.6-.043,1.194-.043,1.749l.085.043c1.706-3.113,3.625-4.692,5.715-4.692a3.447,3.447,0,0,1,.682.043,4.083,4.083,0,0,1,.725.213,6.022,6.022,0,0,0-.256,1.578c-.043.725-.043,1.365-.043,1.919l-.3.213A2.435,2.435,0,0,0,743.385,82.283Z" transform="translate(-620.68 -69.957)"/>
      <path id="Path_167" data-name="Path 167" class="cls-1" d="M766.619,96.813a7.862,7.862,0,0,0,1.066.981,6.653,6.653,0,0,0,1.45.768,4.64,4.64,0,0,0,1.706.3,4.894,4.894,0,0,0,1.578-.256,5.231,5.231,0,0,0,1.365-.725,3.768,3.768,0,0,0,.938-1.194,4.346,4.346,0,0,0,.341-1.706,2.638,2.638,0,0,0-.768-2.047,6.331,6.331,0,0,0-1.877-1.152c-.768-.3-1.578-.554-2.474-.81a9.663,9.663,0,0,1-2.474-.981,5.87,5.87,0,0,1-1.877-1.663,4.734,4.734,0,0,1-.768-2.858,7.659,7.659,0,0,1,.469-2.644,4.908,4.908,0,0,1,1.407-2.047,6.287,6.287,0,0,1,2.26-1.365,8.585,8.585,0,0,1,3.071-.512,7.491,7.491,0,0,1,2.73.426c.725.3,1.45.554,2.09.768a8.547,8.547,0,0,0-.64,1.621,7.672,7.672,0,0,0-.384,1.493h-.512a4.021,4.021,0,0,0-1.365-1.877,3.757,3.757,0,0,0-2.474-.81,4.467,4.467,0,0,0-1.279.213,3.071,3.071,0,0,0-1.152.64,3.669,3.669,0,0,0-.853,1.109,3.987,3.987,0,0,0-.341,1.663,2.838,2.838,0,0,0,.768,2.132,5.654,5.654,0,0,0,1.877,1.194,18.737,18.737,0,0,0,2.474.768,11.346,11.346,0,0,1,2.474.9,5.286,5.286,0,0,1,1.877,1.621,4.735,4.735,0,0,1,.768,2.858,5.652,5.652,0,0,1-.554,2.474,6.464,6.464,0,0,1-1.578,2.175,7.869,7.869,0,0,1-2.431,1.535,9.552,9.552,0,0,1-3.241.554,12.3,12.3,0,0,1-3.327-.384,10.385,10.385,0,0,1-2.26-.9c.171-.384.341-.9.554-1.535a6.951,6.951,0,0,0,.3-1.621h.512C766.065,96.173,766.321,96.472,766.619,96.813Z" transform="translate(-638.115 -70.071)"/>
    </g>
    <g id="Group_66" data-name="Group 66" transform="translate(925.045 32.37)">
      <path id="Path_168" data-name="Path 168" class="cls-1" d="M367.378,13.04a11.094,11.094,0,0,0-6.611-1.407,11.225,11.225,0,0,0-6.27,2.559,10.174,10.174,0,0,0-3.5,5.544h0c0,.043,0,.085.043.085s.085,0,.085-.043a11.81,11.81,0,0,1,1.749-2.559,13.189,13.189,0,0,1,2.3-2.047,11.532,11.532,0,0,1,5.672-2,11.66,11.66,0,0,1,8.573,2.6,10.522,10.522,0,0,1,2.133,2.218c0,.043.043.043.085.043s.043-.043.043-.085h0A9.65,9.65,0,0,0,367.378,13.04Z" transform="translate(-336.107 -6.575)"/>
      <path id="Path_169" data-name="Path 169" class="cls-1" d="M370.254,29.294c-.085,0-.171.043-.171.128h0A8.031,8.031,0,0,1,368.8,32.45a7.821,7.821,0,0,1-2.346,2.09,19.423,19.423,0,0,1-6.1,2.047c-2.175.384-4.393.682-6.611.9l-3.369.341c-1.152.128-2.26.3-3.412.427a59.064,59.064,0,0,0-6.952,1.407,24.883,24.883,0,0,0-6.867,2.986,16.034,16.034,0,0,0-3.113,2.559,15.493,15.493,0,0,0-2.431,3.327,14.876,14.876,0,0,0-.853,1.877,15.675,15.675,0,0,0-.64,2,19.094,19.094,0,0,0-.512,3.966V58.3a17.254,17.254,0,0,0,.171,2.09,16.565,16.565,0,0,0,1.152,4.009,16.021,16.021,0,0,0,5.033,6.483,13.937,13.937,0,0,0,3.54,2.047,15.738,15.738,0,0,0,3.924,1.066,15.521,15.521,0,0,0,7.89-.981,17.207,17.207,0,0,0,3.455-1.962,15.755,15.755,0,0,0,2.815-2.772,14.967,14.967,0,0,0,2-3.369,16.687,16.687,0,0,0,1.066-3.711,14.192,14.192,0,0,0,.085-3.8,14.965,14.965,0,0,0-.853-3.625,16.523,16.523,0,0,0-1.749-3.2,17.7,17.7,0,0,0-1.152-1.365,11.116,11.116,0,0,0-1.322-1.152h0a.19.19,0,0,0-.213,0,.194.194,0,0,0,0,.213,13.343,13.343,0,0,1,3.327,5.843,14.4,14.4,0,0,1,.171,6.739,13.058,13.058,0,0,1-3.028,5.971,12.516,12.516,0,0,1-2.516,2.218,13.185,13.185,0,0,1-2.986,1.535,12.774,12.774,0,0,1-6.568.6,12.633,12.633,0,0,1-6.014-2.687,13.249,13.249,0,0,1-4.009-5.289,16.649,16.649,0,0,1-.938-3.241,22.582,22.582,0,0,1-.171-3.412,17.729,17.729,0,0,1,.384-3.369,12.927,12.927,0,0,1,5.63-8.061,24.744,24.744,0,0,1,6.1-2.815,56.787,56.787,0,0,1,6.568-1.621c2.218-.427,4.478-.768,6.7-1.152,1.663-.3,3.327-.554,4.99-.938a.19.19,0,0,0,0,.213h0a26.206,26.206,0,0,1,5.758,14.586,29.476,29.476,0,0,1,0,3.881,22.7,22.7,0,0,1-.6,3.8c-.085.3-.128.6-.256.938l-.256.9-.3.9-.341.9a24.713,24.713,0,0,1-1.663,3.369,21.772,21.772,0,0,1-2.175,3.028,21.472,21.472,0,0,1-2.559,2.644,22.794,22.794,0,0,1-6.142,3.924,24.906,24.906,0,0,1-3.412,1.194,19.8,19.8,0,0,1-3.54.6,25.115,25.115,0,0,1-3.583.043,24.406,24.406,0,0,1-3.54-.512,22.818,22.818,0,0,1-12.2-7.336A22.132,22.132,0,0,1,322.06,68.7a23.489,23.489,0,0,1-1.706-3.241,7.109,7.109,0,0,1-.341-.853l-.3-.853c-.171-.6-.384-1.194-.512-1.791a26.472,26.472,0,0,1-.682-3.668,27.578,27.578,0,0,1-.085-3.753,36.072,36.072,0,0,1,.469-3.753,24.742,24.742,0,0,1,2.687-7.165c2.26-4.094,6.355-7.293,10.577-9.682a8.6,8.6,0,0,0,1.749.64h.043a.17.17,0,0,0,.171-.085c.043-.085,0-.171-.043-.171a14.729,14.729,0,0,1-1.749-1.066L331.955,33a17.1,17.1,0,0,1-6.611-10.321A18.625,18.625,0,0,1,325,18.93V17.821a6.972,6.972,0,0,1,.085-.938l.171-.938.085-.469.128-.469a17.343,17.343,0,0,1,3.327-6.7,16.433,16.433,0,0,1,13.094-6.056,16.663,16.663,0,0,1,12.88,6.653c.043.043.128.085.171.043a.17.17,0,0,0,.085-.171V8.737a15.018,15.018,0,0,0-5.2-6.014A18.931,18.931,0,0,0,346.115.847c-.341-.128-.682-.213-.981-.341L344.11.249c-.682-.128-1.365-.256-2.09-.341a17.882,17.882,0,0,0-8.4,1.322c-.341.128-.682.3-.981.426a10.783,10.783,0,0,0-.938.554l-.469.256-.256.128-.213.171-.9.64c-.128.128-.3.213-.427.341l-.426.341-.81.725-.768.768a6.555,6.555,0,0,0-.725.81,18.765,18.765,0,0,0-2.346,3.711l-.469.981-.384,1.024a17.475,17.475,0,0,0-.6,2.132l-.128.554-.085.554-.128,1.066a2.252,2.252,0,0,0-.043.554v1.663a8.312,8.312,0,0,0,.085,1.066,9.089,9.089,0,0,0,.128,1.066,18.87,18.87,0,0,0,.427,2.133c.085.341.213.682.3,1.024a6.7,6.7,0,0,0,.384.981l.213.512.213.469a10.186,10.186,0,0,0,.512.938,17.579,17.579,0,0,0,2.474,3.369,15.871,15.871,0,0,0,3.839,2.943,25.832,25.832,0,0,0-14.97,25.078,26.052,26.052,0,0,0,6.014,15.183,25.041,25.041,0,0,0,6.227,5.374,26.965,26.965,0,0,0,3.668,1.877,24.678,24.678,0,0,0,3.924,1.237,21.547,21.547,0,0,0,4.052.554,26.261,26.261,0,0,0,4.094-.085A25.567,25.567,0,0,0,352,80.176a25.909,25.909,0,0,0,14.672-27.211,25.741,25.741,0,0,0-7.25-14.544l-.043-.043,1.535-.384a28.8,28.8,0,0,0,3.241-1.066,13.971,13.971,0,0,0,3.028-1.663,7.887,7.887,0,0,0,3.369-5.928A.471.471,0,0,1,370.254,29.294Z" transform="translate(-316.081 0.16)"/>
    </g>
    <path id="Path_170" data-name="Path 170" class="cls-1" d="M467.2,155.033l75.874-.768v-.64L467.2,152.9Z" transform="translate(522.298 -55.25)"/>
    <path id="Path_171" data-name="Path 171" class="cls-1" d="M186.974,154.132l-75.874-.725v-.682L186.974,152Z" transform="translate(726.521 -54.734)"/>
  </g>
</svg>
